<?xml version="1.0" standalone="no"?><!DOCTYPE svg PUBLIC "-//W3C//DTD SVG 1.1//EN" "http://www.w3.org/Graphics/SVG/1.1/DTD/svg11.dtd"><svg t="1545709127046" class="icon" style="" viewBox="0 0 1024 1024" version="1.1" xmlns="http://www.w3.org/2000/svg" p-id="2949" xmlns:xlink="http://www.w3.org/1999/xlink" width="200" height="200"><defs><style type="text/css"></style></defs><path d="M387.346873 297.128281L253.676822 425.775031a39.131518 39.131518 0 0 0-8.941477 44.00412c6.630758 15.069904 22.052293 24.915575 39.231984 25.016042h466.514006c20.947167 0 37.875693-16.074565 37.875693-35.916606 0-19.892274-16.928526-35.966838-37.875693-35.966838H363.837822l78.8156-74.746726a35.313809 35.313809 0 0 0-0.803728-51.740005 40.035713 40.035713 0 0 0-54.502821 0.703263z m-151.502771 320.536865c0 9.544273 4.018641 18.686681 11.101496 25.417905 7.133088 6.781457 16.727594 10.548933 26.774196 10.548933h387.045377l-78.765367 74.746726a34.962178 34.962178 0 0 0-11.201962 25.518371c0 9.594506 4.018641 18.736914 11.201962 25.518372a39.382683 39.382683 0 0 0 53.397695 0l135.177042-128.646751a38.177091 38.177091 0 0 0 12.50802-28.381653 36.418935 36.418935 0 0 0-3.064214-15.471768 42.698062 42.698062 0 0 0-37.82546-25.16674H273.719794c-10.046603 0-19.641109 3.817709-26.774196 10.548933a35.062644 35.062644 0 0 0-11.101496 25.367672z" fill="#F7931D" p-id="2950"></path><path d="M895.855679 0H127.993819A128.345352 128.345352 0 0 0 0.000099 127.993721V895.905813a128.345352 128.345352 0 0 0 127.99372 127.943488h767.86186a128.345352 128.345352 0 0 0 127.993721-127.943488V127.993721a128.345352 128.345352 0 0 0-127.993721-127.993721zM959.852539 895.905813c0 35.16311-28.783517 63.946627-63.99686 63.946628H127.993819a64.147559 64.147559 0 0 1-63.99686-63.946628V127.993721c0-35.213343 28.783517-63.99686 63.99686-63.996861h767.86186c35.213343 0 63.99686 28.783517 63.99686 63.996861V895.905813z" fill="#F7931D" p-id="2951"></path></svg>
