<?xml version="1.0" standalone="no"?>
<!DOCTYPE svg PUBLIC "-//W3C//DTD SVG 1.1//EN" "http://www.w3.org/Graphics/SVG/1.1/DTD/svg11.dtd">
<svg t="1569805469753" class="icon" viewBox="0 0 1024 1024" version="1.1" xmlns="http://www.w3.org/2000/svg" p-id="1017" xmlns:xlink="http://www.w3.org/1999/xlink" width="200" height="200"><defs><style type="text/css"></style></defs><path d="M901.12 841.728h-51.712V374.272c0-72.704-41.472-103.936-67.584-109.056l-165.888-51.712V156.16c0-10.24-5.12-15.36-10.24-20.992-5.12-5.12-15.36-5.12-20.992-5.12L237.056 228.864s-62.464 15.36-62.464 98.816v514.048H122.88c-15.36 0-26.112 10.24-26.112 26.112 0 15.36 10.24 26.112 26.112 26.112h778.24c15.36 0 26.112-10.24 26.112-26.112 0-15.872-10.24-26.112-26.112-26.112z m-337.408 0H226.304V327.68c0-36.352 20.992-46.592 26.112-46.592l311.296-88.064v648.704z m233.984 0h-181.76V265.216l160.256 53.248 3.584 1.536s15.872 6.656 18.432 54.272v467.456zM371.712 300.032H320v51.712h51.712V300.032z m119.296 0H439.296v51.712h51.712V300.032zM371.712 413.184H320v51.712h51.712V413.184z m119.296 0H439.296v51.712h51.712V413.184z m-119.296 113.152H320v51.712h51.712v-51.712z m119.296 0H439.296v51.712h51.712v-51.712z m-119.296 112.64H320V691.2h51.712v-52.224z m119.296 0H439.296V691.2h51.712v-52.224z m-119.296 113.152H320V803.84h51.712v-51.712z m119.296 0H439.296V803.84h51.712v-51.712z m192.512-300.032h51.712V400.384h-51.712v51.712z m0 119.296h51.712v-51.712h-51.712v51.712z m0 113.664h51.712v-51.712h-51.712v51.712z m0 115.2h51.712v-51.712h-51.712v51.712z" fill="#1296db" p-id="1018"></path></svg>